<svg xmlns="http://www.w3.org/2000/svg" width="400" height="400">
  <path d="M228 80.88c6.86 1.12 11.23 7.78 15.16 12.99 4.96 7.28 4.96 7.28 4.5 10.53-2.83 11.1-8.88 21.44-13.91 31.66-11.03 21.95-11.03 21.95-20.75 44.49-2.2 5.37-4.83 10.55-7.38 15.76a7100.5 7100.5 0 0 0-5.66 11.67 7402.41 7402.41 0 0 0-11.34 23.39 341.58 341.58 0 0 0-9.63 21.13c-4.12 10.2-9.02 20-13.87 29.88l-2.64 5.4c-1.7 3.48-3.41 6.96-5.13 10.43a579.57 579.57 0 0 0-5.3 10.97l-2.37 5.02c-2.87 4.78-7 7.88-11.68 10.8l-1.93 1.27c-3.1 1.1-4.93.7-8.07-.27a52.73 52.73 0 0 1-5.56-5.25l-2.76-2.9L117 315c-3.2-3.27-6.5-6.41-9.87-9.52-11.16-10.32-21.89-21.08-32.63-31.84A5455.88 5455.88 0 0 0 59.86 259a2890.7 2890.7 0 0 0-7.25-7.26l-2.41-2.42c-4.8-5.08-8.1-9.29-7.97-16.61 2.35-8.23 11.9-14.95 18.02-20.58a591.82 591.82 0 0 0 21.68-21.14l7.38-7.49c4.56-4.6 9.1-9.21 13.63-13.84l9.6-9.74c1.22-1.22 2.42-2.45 3.62-3.69a607.1 607.1 0 0 1 5.05-5.1l1.47-1.54c3.55-3.5 6.36-4.5 11.32-4.59 2.5 2 2.5 2 5 5a277 277 0 0 0 3.5 3.5l1.78 1.8a107.2 107.2 0 0 0 4.72 4.32c2 2.38 2 2.38 2.02 4.6-1.51 4.12-4.27 6.56-7.38 9.59l-2 2.01a5660.36 5660.36 0 0 0-11.18 11.1l-12.05 11.95-12.29 12.2A13187 13187 0 0 1 82 235a21.85 21.85 0 0 0 5.5 7.47l2.11 1.96 2.27 2.07a3542.1 3542.1 0 0 1 6.95 6.46 246.55 246.55 0 0 1 19.44 20.15c3.3 3.6 7.02 6.73 10.73 9.89 2.2-2.2 3.13-4.1 4.46-6.91l1.43-3 1.49-3.15 1.46-3.07a599.9 599.9 0 0 0 9.6-21.26 705.47 705.47 0 0 1 15.62-33.3c9.45-18.7 9.45-18.7 17.74-37.94 3.26-8.33 7.44-16.29 11.39-24.3l4.92-10.03 1.22-2.5c2.92-5.98 5.8-11.97 8.66-17.98l1.13-2.39A161.2 161.2 0 0 0 213 106a243.4 243.4 0 0 1 6.69-15.06c.4-.86.8-1.72 1.23-2.6 3.48-7.31 3.48-7.31 7.08-7.47Z"/>
  <path d="M274 144c1.9 1.28 1.9 1.28 3.73 3.12l2.13 2.1 2.28 2.32 2.44 2.43a7698.72 7698.72 0 0 0 13.5 13.56c3.87 3.88 7.74 7.76 11.6 11.66 4.45 4.5 8.92 8.98 13.39 13.46a8588.04 8588.04 0 0 1 26.05 26.16l2.3 2.3c8.08 8.2 8.08 8.2 8.97 13-.34 5.07-1.84 7.82-5.3 11.52l-2.47 2.64a853.32 853.32 0 0 1-13.18 13.42l-2.71 2.72a381362739.61 381362739.61 0 0 1-5.04 5.03 160.62 160.62 0 0 1-6.32 5.69c-4.83 4.19-9.3 8.7-13.8 13.25l-4.59 4.63-13.04 13.14a3880.75 3880.75 0 0 1-11.06 11.15 1219.58 1219.58 0 0 1-6.67 6.72c-2.04 1.83-3.66 3-6.21 3.98-6.98-.54-11.17-5.89-15.52-10.91A458.64 458.64 0 0 1 248 309c1.62-4.36 5.01-6.98 8.38-10a748.5 748.5 0 0 0 23-22.28l1.78-1.79 10.97-11 9.46-9.47L320 236c-1.79-3.87-4.27-6.5-7.31-9.44l-1.44-1.4c-1.41-1.4-2.83-2.78-4.25-4.16l-2.35-2.36c-2.59-2.58-5.2-5.14-7.8-7.7-4.96-4.85-9.9-9.72-14.82-14.6-2.97-2.94-5.95-5.88-8.94-8.8-2.9-2.84-5.8-5.7-8.68-8.56a473.4 473.4 0 0 0-3.3-3.24c-1.55-1.5-3.08-3.02-4.6-4.55l-2.65-2.6c-2.26-3.14-2.36-4.8-1.86-8.59 1.35-2.04 1.35-2.04 3.21-3.83l2.02-1.98 2.14-2 2.12-2.06c6.93-6.68 6.93-6.68 12.51-6.13Z"/>
  <style>
    path { fill: #000; }
      @media (prefers-color-scheme: dark) {
      path { fill: #000; }
    }
  </style>
</svg>
